<svg xmlns="http://www.w3.org/2000/svg" viewBox="0 0 320 260"><defs><linearGradient id="g" x1="0" y1="0" x2="1" y2="1"><stop stop-color="#eefcff" stop-opacity=".95"/><stop offset=".5" stop-color="#a8dced" stop-opacity=".75"/><stop offset="1" stop-color="#4f91bb" stop-opacity=".92"/></linearGradient><filter id="s"><feDropShadow dx="0" dy="16" stdDeviation="10" flood-color="#2d6688" flood-opacity=".25"/></filter></defs><path filter="url(#s)" fill="url(#g)" stroke="#6eaec9" stroke-width="2" d="M113 230c-18-7-26-22-20-40l16-48-10-74c-2-12 7-22 18-22 9 0 16 6 18 15l12 51 2-91c0-12 9-21 20-21s20 9 20 21l1 91 9-91c1-12 10-20 21-19s19 10 18 22l-6 94 13-70c2-12 12-19 23-17s18 12 16 23l-15 99c-5 31-20 57-48 70-27 13-74 9-108-3z"/><path fill="none" stroke="#fff" stroke-opacity=".8" stroke-width="4" d="M124 139c34 20 72 18 108-3"/></svg>